<svg width="116" height="116" viewBox="0 0 116 116" fill="none" xmlns="http://www.w3.org/2000/svg">
<path d="M58 13.5938C59.878 13.5938 61.3984 12.0733 61.3984 10.1953V3.39844C61.3984 1.52045 59.878 0 58 0C56.122 0 54.6016 1.52045 54.6016 3.39844V10.1953C54.6016 12.0733 56.122 13.5938 58 13.5938Z" fill="#FA943A"/>
<path d="M73.9966 19.395L80.7934 12.5981C82.1209 11.2706 82.1209 9.12003 80.7934 7.79251C79.4659 6.465 77.3153 6.465 75.9878 7.79251L69.1909 14.5894C67.8634 15.9169 67.8634 18.0675 69.1909 19.395C70.5185 20.7225 72.669 20.7225 73.9966 19.395Z" fill="#FA943A"/>
<path d="M42.0034 19.395C43.331 20.7225 45.4815 20.7225 46.8091 19.395C48.1366 18.0675 48.1366 15.9169 46.8091 14.5894L40.0122 7.79251C38.6847 6.465 36.5341 6.465 35.2066 7.79251C33.8791 9.12003 33.8791 11.2706 35.2066 12.5981L42.0034 19.395Z" fill="#FA943A"/>
<path d="M30.5859 48.0312C30.5859 40.5343 24.4891 34.4375 16.9922 34.4375C9.49527 34.4375 3.39844 40.5343 3.39844 48.0312C3.39844 55.5282 9.49527 61.625 16.9922 61.625C24.4891 61.625 30.5859 55.5282 30.5859 48.0312Z" fill="#FA943A"/>
<path d="M58 27.4141C52.3784 27.4141 47.8047 31.9878 47.8047 37.6094C47.8047 50.7252 36.9049 61.625 23.7891 61.625H16.9922C7.62347 61.625 0 69.2485 0 78.6172V112.602C0 114.48 1.52045 116 3.39844 116H30.5859C32.4613 116 33.9392 114.48 33.9392 112.605L33.9587 80.8244C53.8051 76.148 68.1953 58.2788 68.1953 37.6094C68.1953 31.9878 63.6216 27.4141 58 27.4141Z" fill="#FA943A"/>
<path d="M112.602 48.0312C112.602 40.5343 106.505 34.4375 99.0078 34.4375C91.5109 34.4375 85.4141 40.5343 85.4141 48.0312C85.4141 55.5282 91.5109 61.625 99.0078 61.625C106.505 61.625 112.602 55.5282 112.602 48.0312Z" fill="#FA943A"/>
<path d="M99.0077 61.625H92.2108C84.3961 61.625 77.2824 57.5602 72.9432 51.7227C70.9546 58.739 67.4907 65.1067 62.8647 70.5592C68.2837 75.3427 74.9796 79.1394 82.0403 80.8209L82.0606 112.605C82.0606 114.48 83.5386 116 85.4139 116H112.601C114.479 116 116 114.48 116 112.602V78.6172C116 69.2485 108.376 61.625 99.0077 61.625Z" fill="#FA943A"/>
</svg>
