<svg width="116" height="116" viewBox="0 0 116 116" fill="none" xmlns="http://www.w3.org/2000/svg">
<g clip-path="url(#clip0)">
<path d="M18.9357 37.894H3.78723C1.70466 37.894 0 39.5901 0 41.681V109.85C0 111.94 1.69718 113.636 3.78723 113.636H18.9357C21.0257 113.636 22.7229 111.939 22.7229 109.85V41.681C22.7229 39.5901 21.018 37.894 18.9357 37.894Z" fill="#FA943A"/>
<path d="M106.545 37.8939C105.935 37.7906 77.3774 37.8939 77.3774 37.8939L81.3662 27.0117C84.1185 19.4957 82.3366 8.01958 74.6998 3.93963C72.2133 2.61107 68.7392 1.94384 65.9382 2.6489C64.3319 3.05309 62.9202 4.11658 62.0787 5.54143C61.1111 7.18016 61.211 9.09303 60.8664 10.9101C59.9925 15.5188 57.8148 19.9008 54.4424 23.1898C48.5626 28.9243 30.2974 45.4679 30.2974 45.4679V106.062H93.4162C101.933 106.067 107.515 96.5561 103.314 89.1268C108.321 85.9198 110.034 79.1649 107.101 73.9784C112.109 70.7714 113.821 64.0164 110.888 58.8299C119.528 53.2966 116.64 39.6013 106.545 37.8939Z" fill="#FA943A"/>
</g>
<defs>
<clipPath id="clip0">
<rect width="116" height="116" fill="white"/>
</clipPath>
</defs>
</svg>
