<svg width="70" height="70" viewBox="0 0 70 70" fill="none" xmlns="http://www.w3.org/2000/svg">
<path d="M24.6875 37.0674V43.9072H20.5859V37.0674H12.3145V53.6104H32.959V37.0674H24.6875Z" fill="#FA943A"/>
<path d="M49.4141 37.0674V43.9072H45.3125V37.0674H37.041V53.6104H57.6855V37.0674H49.4141Z" fill="#FA943A"/>
<path d="M24.6875 4.10498V10.9446H20.5859V4.10498H12.3145V20.6479H32.959V4.10498H24.6875Z" fill="#FA943A"/>
<path d="M49.4141 4.10498V10.9446H45.3125V4.10498H37.041V20.6479H57.6855V4.10498H49.4141Z" fill="#FA943A"/>
<path d="M70 32.9591V24.7494H65.8984H65.8953V0H61.7937V24.7492H8.20654V0H4.10498V24.7492H4.10156H0V32.9589H4.10498V57.7117H4.10156H0V65.9214H4.10498V70H8.20654V65.9214H61.7937V70H65.8953V65.9214H70V57.7117H65.8984H65.8953V32.9591H70ZM61.7937 57.7117H8.20654V32.9591H61.7937V57.7117Z" fill="#FA943A"/>
</svg>
