<svg width="70" height="70" viewBox="0 0 70 70" fill="none" xmlns="http://www.w3.org/2000/svg">
<path d="M34.9999 44.2993C33.7077 44.2993 32.6567 45.3501 32.6567 46.6425C32.6567 47.9346 33.7076 48.9856 34.9999 48.9856C36.2921 48.9856 37.343 47.9348 37.343 46.6425C37.343 45.3503 36.2922 44.2993 34.9999 44.2993Z" fill="#FA943A"/>
<path d="M23.2847 68.902H46.7157C51.4863 68.902 55.4274 65.317 56.0073 60.7012H13.9932C14.5731 65.317 18.5141 68.902 23.2847 68.902Z" fill="#FA943A"/>
<path d="M68.6316 2.46652C67.7494 1.58429 66.572 1.09814 65.3185 1.09814C64.0638 1.09814 62.8875 1.58429 62.0054 2.46652L58.7742 5.69766C57.8919 6.57989 57.4058 7.75606 57.4058 9.01076C57.4058 9.86127 57.6459 10.6673 58.0642 11.3785L55.8231 13.6185C55.1119 13.2003 54.3059 12.9601 53.4566 12.9601C52.2019 12.9601 51.0256 13.4462 50.1435 14.3284L46.9122 17.5596C46.6698 17.802 46.4682 18.0798 46.2866 18.3703C43.3425 15.5702 39.3733 13.8387 34.9999 13.8387C30.6265 13.8387 26.6573 15.5702 23.7133 18.3703C23.5316 18.0798 23.3302 17.802 23.0876 17.5596L19.8565 14.3284C18.9743 13.4462 17.7981 12.9601 16.5434 12.9601C15.694 12.9601 14.8879 13.2002 14.1769 13.6185L11.9358 11.3785C12.354 10.6673 12.5942 9.86127 12.5942 9.01076C12.5942 7.75606 12.1081 6.57975 11.2258 5.69766L7.99457 2.46652C7.11234 1.58429 5.93618 1.09814 4.68148 1.09814C3.42787 1.09814 2.25047 1.58429 1.36838 2.46652C0.486146 3.34875 0 4.52616 0 5.77976C0 7.03446 0.486146 8.21186 1.36838 9.09409L4.59951 12.324C5.48174 13.2062 6.65791 13.6924 7.91261 13.6924C8.76203 13.6924 9.56806 13.4533 10.2791 13.0352L12.5202 15.2752C12.102 15.9864 11.8618 16.7924 11.8618 17.6417C11.8618 18.8964 12.3479 20.0738 13.2302 20.956L16.4613 24.1859C17.2368 24.9627 18.2479 25.4008 19.3012 25.5075C18.8478 27.0071 18.5982 28.5945 18.5982 30.2406V36.0984H15.0836C14.4357 36.0984 13.9121 36.6232 13.9121 37.2699V58.3577H56.0878V37.2699C56.0878 36.6232 55.5642 36.0984 54.9163 36.0984H51.4016V30.2406C51.4016 28.5946 51.152 27.0071 50.6987 25.5075C51.7519 25.4008 52.763 24.9627 53.5386 24.1859L56.7697 20.956C57.6519 20.0738 58.1381 18.8964 58.1381 17.6417C58.1381 16.7923 57.898 15.9862 57.4796 15.2752L59.7208 13.0352C60.4319 13.4533 61.238 13.6924 62.0872 13.6924C63.3419 13.6924 64.5183 13.2062 65.4004 12.324L68.6316 9.09395C69.5139 8.21172 70 7.03432 70 5.77962C70 4.52616 69.5137 3.34875 68.6316 2.46652ZM10.1667 9.60825L8.88271 8.3243C8.42457 7.8674 7.68416 7.8674 7.22616 8.3243C6.76802 8.78244 6.76802 9.52395 7.22616 9.98085L8.495 11.2497C7.71244 11.4383 6.83721 11.2497 6.2562 10.6674L3.02493 7.43741C2.5856 6.99808 2.34314 6.40882 2.34314 5.77962C2.34314 5.15165 2.5845 4.5635 3.02493 4.12307C3.46426 3.68374 4.05351 3.44129 4.68148 3.44129C5.31054 3.44129 5.8987 3.68374 6.33803 4.12307L9.56916 7.35421C10.0085 7.79354 10.2509 8.38279 10.2509 9.01076C10.2511 9.21697 10.2159 9.41494 10.1667 9.60825ZM21.7791 20.5752C21.5718 20.8576 21.3714 21.1445 21.1827 21.4398C21.0832 21.5956 20.9882 21.7538 20.8945 21.9143C20.693 22.2541 20.5033 22.6009 20.3263 22.9558C20.2912 23.0284 20.2467 23.0951 20.2115 23.1679C19.4582 23.3121 18.6698 23.08 18.118 22.5294L14.8868 19.2995C14.4475 18.8601 14.2051 18.2709 14.2051 17.6417C14.2051 17.4367 14.2402 17.2387 14.2906 17.0454L15.4269 18.1818C15.6554 18.4115 15.9554 18.525 16.2552 18.525C16.5551 18.525 16.855 18.4113 17.0835 18.1818C17.5415 17.7249 17.5415 16.9832 17.0835 16.5252L15.9471 15.3889C16.1404 15.3385 16.3384 15.3033 16.5434 15.3033C17.1725 15.3033 17.7606 15.5458 18.1999 15.9851L21.4311 19.2163C21.7556 19.5408 21.9267 19.9086 22.0133 20.2343C21.9301 20.3431 21.8598 20.4638 21.7791 20.5752ZM36.1716 51.1619V53.6713C36.1716 54.3192 35.6479 54.8428 35.0001 54.8428C34.3522 54.8428 33.8286 54.3192 33.8286 53.6713V51.1619C31.8136 50.6383 30.3139 48.82 30.3139 46.642C30.3139 44.0587 32.4157 41.9559 35.0001 41.9559C37.5846 41.9559 39.6862 44.0587 39.6862 46.642C39.6862 48.82 38.1866 50.6383 36.1716 51.1619ZM44.3724 36.0982H25.6276V30.2404C25.6276 25.0727 29.8323 20.868 35.0001 20.868C40.1678 20.868 44.3725 25.0727 44.3725 30.2404L44.3724 36.0982ZM55.1132 19.2993L51.882 22.5292C51.3302 23.0799 50.5406 23.3118 49.7885 23.1678C49.7533 23.0951 49.7088 23.0283 49.6737 22.9556C49.4967 22.6006 49.307 22.254 49.1054 21.9142C49.0117 21.7537 48.9168 21.5955 48.8173 21.4397C48.6286 21.1445 48.4283 20.8574 48.221 20.575C48.1402 20.4637 48.0711 20.343 47.9867 20.2341C48.0734 19.9085 48.2444 19.5405 48.5689 19.2161L51.8001 15.985C52.3811 15.4038 53.2563 15.2153 54.0389 15.4027L52.9165 16.5251C52.4584 16.9832 52.4584 17.7247 52.9165 18.1816C53.145 18.4113 53.4449 18.5249 53.7448 18.5249C54.0448 18.5249 54.3446 18.4112 54.5731 18.1816L55.7106 17.0453C55.7598 17.2386 55.7949 17.4366 55.7949 17.6415C55.7949 18.2707 55.5525 18.86 55.1132 19.2993ZM66.9751 7.43741L63.7439 10.6673C63.1628 11.2496 62.2877 11.4382 61.5051 11.2496L62.774 9.98071C63.2321 9.52381 63.2321 8.78217 62.774 8.32417C62.316 7.86726 61.5754 7.86726 61.1174 8.32417L59.8346 9.60825C59.7842 9.41494 59.7491 9.21697 59.7491 9.01076C59.7491 8.38279 59.9915 7.79354 60.4308 7.35421L63.662 4.12307C64.1013 3.68374 64.6895 3.44129 65.3185 3.44129C65.9465 3.44129 66.5357 3.68374 66.9751 4.12307C67.4156 4.56364 67.6569 5.15165 67.6569 5.77962C67.6569 6.40882 67.4144 6.99808 66.9751 7.43741Z" fill="#FA943A"/>
</svg>
