<svg width="70" height="70" viewBox="0 0 70 70" fill="none" xmlns="http://www.w3.org/2000/svg">
<g clip-path="url(#clip0)">
<path d="M58.9815 4.375H54.6241V2.1875C54.6241 0.978359 53.6497 0 52.4454 0C51.2411 0 50.2667 0.978359 50.2667 2.1875V4.375H41.5518V2.1875C41.5518 0.978359 40.5774 0 39.3731 0C38.1688 0 37.1944 0.978359 37.1944 2.1875V4.375H28.4795V2.1875C28.4795 0.978359 27.5051 0 26.3008 0C25.0965 0 24.1221 0.978359 24.1221 2.1875V4.375H15.4073V2.1875C15.4073 0.978359 14.4328 0 13.2285 0C12.0243 0 11.0498 0.978359 11.0498 2.1875V4.375H6.69239C3.08826 4.375 0.15625 7.31883 0.15625 10.9375V63.4375C0.15625 64.6466 1.13068 65.625 2.33496 65.625H38.3351C36.2427 62.4939 35.0157 58.7331 35.0157 54.6875C35.0157 43.8312 43.8114 35 54.6241 35C58.6535 35 62.3991 36.232 65.5177 38.3328V10.9375C65.5177 7.31883 62.5857 4.375 58.9815 4.375ZM15.4073 56.875H11.0498C9.84554 56.875 8.87111 55.8966 8.87111 54.6875C8.87111 53.4784 9.84554 52.5 11.0498 52.5H15.4073C16.6115 52.5 17.586 53.4784 17.586 54.6875C17.586 55.8966 16.6115 56.875 15.4073 56.875ZM15.4073 48.125H11.0498C9.84554 48.125 8.87111 47.1466 8.87111 45.9375C8.87111 44.7284 9.84554 43.75 11.0498 43.75H15.4073C16.6115 43.75 17.586 44.7284 17.586 45.9375C17.586 47.1466 16.6115 48.125 15.4073 48.125ZM15.4073 39.375H11.0498C9.84554 39.375 8.87111 38.3966 8.87111 37.1875C8.87111 35.9784 9.84554 35 11.0498 35H15.4073C16.6115 35 17.586 35.9784 17.586 37.1875C17.586 38.3966 16.6115 39.375 15.4073 39.375ZM15.4073 30.625H11.0498C9.84554 30.625 8.87111 29.6466 8.87111 28.4375C8.87111 27.2284 9.84554 26.25 11.0498 26.25H15.4073C16.6115 26.25 17.586 27.2284 17.586 28.4375C17.586 29.6466 16.6115 30.625 15.4073 30.625ZM28.4795 56.875H24.1221C22.9178 56.875 21.9434 55.8966 21.9434 54.6875C21.9434 53.4784 22.9178 52.5 24.1221 52.5H28.4795C29.6838 52.5 30.6583 53.4784 30.6583 54.6875C30.6583 55.8966 29.6838 56.875 28.4795 56.875ZM28.4795 48.125H24.1221C22.9178 48.125 21.9434 47.1466 21.9434 45.9375C21.9434 44.7284 22.9178 43.75 24.1221 43.75H28.4795C29.6838 43.75 30.6583 44.7284 30.6583 45.9375C30.6583 47.1466 29.6838 48.125 28.4795 48.125ZM28.4795 39.375H24.1221C22.9178 39.375 21.9434 38.3966 21.9434 37.1875C21.9434 35.9784 22.9178 35 24.1221 35H28.4795C29.6838 35 30.6583 35.9784 30.6583 37.1875C30.6583 38.3966 29.6838 39.375 28.4795 39.375ZM28.4795 30.625H24.1221C22.9178 30.625 21.9434 29.6466 21.9434 28.4375C21.9434 27.2284 22.9178 26.25 24.1221 26.25H28.4795C29.6838 26.25 30.6583 27.2284 30.6583 28.4375C30.6583 29.6466 29.6838 30.625 28.4795 30.625ZM41.5518 39.375H37.1944C35.9901 39.375 35.0157 38.3966 35.0157 37.1875C35.0157 35.9784 35.9901 35 37.1944 35H41.5518C42.7561 35 43.7305 35.9784 43.7305 37.1875C43.7305 38.3966 42.7561 39.375 41.5518 39.375ZM41.5518 30.625H37.1944C35.9901 30.625 35.0157 29.6466 35.0157 28.4375C35.0157 27.2284 35.9901 26.25 37.1944 26.25H41.5518C42.7561 26.25 43.7305 27.2284 43.7305 28.4375C43.7305 29.6466 42.7561 30.625 41.5518 30.625ZM54.6241 30.625H50.2667C49.0624 30.625 48.088 29.6466 48.088 28.4375C48.088 27.2284 49.0624 26.25 50.2667 26.25H54.6241C55.8284 26.25 56.8028 27.2284 56.8028 28.4375C56.8028 29.6466 55.8284 30.625 54.6241 30.625ZM61.1603 17.5H4.51368V10.9375C4.51368 9.73055 5.49029 8.75 6.69239 8.75H11.0498V10.9375C11.0498 12.1466 12.0243 13.125 13.2285 13.125C14.4328 13.125 15.4073 12.1466 15.4073 10.9375V8.75H24.1221V10.9375C24.1221 12.1466 25.0965 13.125 26.3008 13.125C27.5051 13.125 28.4795 12.1466 28.4795 10.9375V8.75H37.1944V10.9375C37.1944 12.1466 38.1688 13.125 39.3731 13.125C40.5774 13.125 41.5518 12.1466 41.5518 10.9375V8.75H50.2667V10.9375C50.2667 12.1466 51.2411 13.125 52.4454 13.125C53.6497 13.125 54.6241 12.1466 54.6241 10.9375V8.75H58.9815C60.1837 8.75 61.1603 9.73055 61.1603 10.9375V17.5Z" fill="#FA943A"/>
<path d="M54.6241 39.375C46.2156 39.375 39.373 46.2451 39.373 54.6875C39.373 63.1299 46.2156 70 54.6241 70C63.0325 70 69.8751 63.1299 69.8751 54.6875C69.8751 46.2451 63.0325 39.375 54.6241 39.375ZM63.3389 56.875H54.6241C53.4198 56.875 52.4453 55.8966 52.4453 54.6875V45.9375C52.4453 44.7284 53.4198 43.75 54.6241 43.75C55.8283 43.75 56.8028 44.7284 56.8028 45.9375V52.5H63.3389C64.5432 52.5 65.5176 53.4784 65.5176 54.6875C65.5176 55.8966 64.5432 56.875 63.3389 56.875Z" fill="#FA943A"/>
</g>
<defs>
<clipPath id="clip0">
<rect x="0.15625" width="69.7189" height="70" fill="white"/>
</clipPath>
</defs>
</svg>
