<svg width="70" height="70" viewBox="0 0 70 70" fill="none" xmlns="http://www.w3.org/2000/svg">
<g clip-path="url(#clip0)">
<path d="M55.125 38.3846H14.9187C14.4375 38.3846 14.0437 38.7772 14.0437 39.257L14.0328 44.4916C14.0328 44.9715 14.4266 45.3641 14.9078 45.3641H55.125C55.6063 45.3641 56 44.9715 56 44.4916V39.257C56 38.7772 55.6063 38.3846 55.125 38.3846ZM55.125 48.8538H14.8859C14.4047 48.8538 14.0109 49.2464 14.0109 49.7263L14 54.9609C14 55.4407 14.3937 55.8333 14.875 55.8333H55.125C55.6063 55.8333 56 55.4407 56 54.9609V49.7263C56 49.2464 55.6063 48.8538 55.125 48.8538ZM55.125 27.9153H14.9406C14.4594 27.9153 14.0656 28.3079 14.0656 28.7877L14.0547 34.0224C14.0547 34.5022 14.4484 34.8948 14.9297 34.8948H55.125C55.6063 34.8948 56 34.5022 56 34.0224V28.7877C56 28.3079 55.6063 27.9153 55.125 27.9153ZM66.7734 12.7567L37.0125 0.400783C36.3728 0.136193 35.6871 0 34.9945 0C34.302 0 33.6162 0.136193 32.9766 0.400783L3.22656 12.7567C1.27969 13.5746 0 15.4722 0 17.5878V54.9609C0 55.4407 0.39375 55.8333 0.875 55.8333H9.625C10.1063 55.8333 10.5 55.4407 10.5 54.9609V27.9153C10.5 25.9959 12.0969 24.4256 14.0656 24.4256H55.9344C57.9031 24.4256 59.5 25.9959 59.5 27.9153V54.9609C59.5 55.4407 59.8937 55.8333 60.375 55.8333H69.125C69.6063 55.8333 70 55.4407 70 54.9609V17.5878C70 15.4722 68.7203 13.5746 66.7734 12.7567V12.7567Z" fill="#FA943A"/>
</g>
<defs>
<clipPath id="clip0">
<rect x="0.59375" width="69.7189" height="70" fill="white"/>
</clipPath>
</defs>
</svg>
