<svg width="70" height="70" viewBox="0 0 70 70" fill="none" xmlns="http://www.w3.org/2000/svg">
<g clip-path="url(#clip0)">
<path d="M34.8594 0C15.6388 0 0 15.7018 0 35C0 54.2982 15.6388 70 34.8594 70C54.0801 70 69.7189 54.2982 69.7189 35C69.7189 15.7018 54.0801 0 34.8594 0ZM58.0992 36.4585V33.5415H60.9301C60.5912 27.4052 58.1556 21.8344 54.3152 17.5278L52.3184 19.5332L50.2642 17.4706L52.2615 15.4658C48.6636 12.231 44.1812 9.98688 39.2169 9.1452V11.6665H36.3121V8.82423C35.828 8.79646 35.3504 8.75 34.8594 8.75C34.3685 8.75 33.8908 8.79646 33.4068 8.82423V11.6665H30.502V9.1452C25.5377 9.98688 21.0552 12.231 17.4574 15.4658L19.4547 17.4706L17.4005 19.5332L15.4037 17.5278C11.5633 21.8344 9.12762 27.4052 8.78879 33.5415H11.6196V36.4585H8.78879C9.12762 42.5948 11.5633 48.1656 15.4037 52.4722L17.4005 50.4668L19.4547 52.5294L17.4574 54.5342C21.0552 57.769 25.5387 60.0131 30.502 60.8548V58.3335H33.4068V61.1758C33.8908 61.2035 34.3685 61.25 34.8594 61.25C35.3461 61.25 35.8296 61.2238 36.3121 61.1977V58.3335H39.2169V60.8633C44.0988 60.0265 48.6216 57.8112 52.2716 54.5433L50.2642 52.5294L52.3184 50.4668L54.336 52.4915C56.0205 50.6084 57.4514 48.4721 58.5492 46.1169L61.1811 47.3533C56.4184 57.5677 46.0855 64.1665 34.8594 64.1665C18.8414 64.1665 5.81008 51.0826 5.81008 35C5.81008 18.9174 18.8414 5.83351 34.8594 5.83351C50.8775 5.83351 63.9088 18.9174 63.9088 35C63.9088 38.1237 63.4194 41.1977 62.4551 44.1377L59.6966 43.2234C60.4141 41.0391 60.8226 38.7683 60.9487 36.4585H58.0992ZM38.7913 36.8858L36.7376 38.9478L34.8594 37.062L32.9813 38.9478L30.9275 36.8858L32.8057 35L22.2127 24.3642L24.2664 22.3022L34.8594 32.938L48.3573 19.3858L50.411 21.4478L36.9132 35L38.7913 36.8858Z" fill="#FA943A"/>
</g>
<defs>
<clipPath id="clip0">
<rect width="69.7189" height="70" fill="white"/>
</clipPath>
</defs>
</svg>
