<svg width="71" height="70" viewBox="0 0 71 70" fill="none" xmlns="http://www.w3.org/2000/svg">
<g clip-path="url(#clip0)">
<path d="M69.1048 17.324C68.2949 16.9506 67.3384 17.0854 66.6621 17.6709L53.1759 29.3297V16.0322C53.1759 14.7227 52.1144 13.6562 50.8095 13.6562H3.08443C1.78019 13.6562 0.71875 14.722 0.71875 16.0322V53.9679C0.71875 55.2767 1.77945 56.3438 3.08443 56.3438H50.8102C52.1137 56.3438 53.1774 55.2789 53.1774 53.9679V40.6711L66.6635 52.3292C67.3399 52.9154 68.2979 53.0495 69.1062 52.6768C69.9175 52.3027 70.4376 51.4888 70.4376 50.591V19.4091C70.4369 18.512 69.9175 17.6982 69.1048 17.324Z" fill="#FA943A"/>
</g>
<defs>
<clipPath id="clip0">
<rect x="0.71875" width="69.7189" height="70" fill="white"/>
</clipPath>
</defs>
</svg>
