<svg width="21" height="13" viewBox="0 0 21 13" fill="none" xmlns="http://www.w3.org/2000/svg">
<path d="M3.13948 0.535371L10.2528 7.64871L17.3661 0.535371C17.5359 0.365638 17.7374 0.230999 17.9591 0.13914C18.1809 0.0472805 18.4186 1.78843e-09 18.6586 0C18.8987 -1.78843e-09 19.1364 0.0472805 19.3581 0.13914C19.5799 0.230999 19.7814 0.365638 19.9511 0.535371C20.1209 0.705105 20.2555 0.906608 20.3474 1.12838C20.4392 1.35014 20.4865 1.58783 20.4865 1.82787C20.4865 2.06791 20.4392 2.3056 20.3474 2.52737C20.2555 2.74913 20.1209 2.95064 19.9511 3.12037L11.5361 11.5354C11.3665 11.7053 11.1651 11.8402 10.9433 11.9322C10.7215 12.0242 10.4838 12.0715 10.2436 12.0715C10.0035 12.0715 9.76579 12.0242 9.544 11.9322C9.32222 11.8402 9.12075 11.7053 8.95115 11.5354L0.536147 3.12037C0.36619 2.95076 0.231353 2.7493 0.139354 2.52752C0.0473545 2.30573 0 2.06798 0 1.82787C0 1.58776 0.0473545 1.35001 0.139354 1.12823C0.231353 0.906443 0.36619 0.70498 0.536147 0.535371C1.25115 -0.161295 2.42448 -0.179628 3.13948 0.535371Z" fill="black"/>
</svg>
