<svg width="26" height="26" viewBox="0 0 26 26" fill="none" xmlns="http://www.w3.org/2000/svg">
<path d="M4.66047 0C2.07932 0 0.000976562 2.07834 0.000976562 4.65949V20.8589C0.000976562 23.44 2.07932 25.5183 4.66047 25.5183H13.4404V15.5423H10.8024V11.9506H13.4404V8.88198C13.4404 6.47114 14.999 4.25758 18.5895 4.25758C20.0432 4.25758 21.1182 4.39714 21.1182 4.39714L21.0337 7.75122C21.0337 7.75122 19.9373 7.74086 18.741 7.74086C17.4462 7.74086 17.2386 8.33742 17.2386 9.32779V11.9506H21.1365L20.9667 15.5423H17.2386V25.5184H20.8598C23.441 25.5184 25.5193 23.44 25.5193 20.8589V4.65952C25.5193 2.07837 23.441 2.55183e-05 20.8598 2.55183e-05H4.66044L4.66047 0Z" fill="white"/>
</svg>
