<svg width="35" height="21" viewBox="0 0 35 21" fill="none" xmlns="http://www.w3.org/2000/svg">
<path d="M33.8134 1.93424C34.0523 1.13665 33.8134 0.551758 32.6838 0.551758H28.9415C27.9893 0.551758 27.5542 1.05775 27.3153 1.61349C27.3153 1.61349 25.4126 6.2772 22.7164 9.30116C21.8461 10.1811 21.4485 10.4589 20.9741 10.4589C20.7369 10.4589 20.3922 10.1811 20.3922 9.38349V1.93424C20.3922 0.977136 20.1175 0.551758 19.324 0.551758H13.4435C12.8497 0.551758 12.4913 0.994288 12.4913 1.41624C12.4913 2.32188 13.8394 2.53114 13.9776 5.0834V10.6202C13.9776 11.8328 13.7609 12.0541 13.2831 12.0541C12.0152 12.0541 8.92997 7.37324 7.09895 2.01485C6.7423 0.973705 6.38224 0.553474 5.42662 0.553474H1.68608C0.616139 0.553474 0.402832 1.05947 0.402832 1.6152C0.402832 2.61347 1.67073 7.55334 6.30886 14.0867C9.40095 18.548 13.7541 20.9665 17.7199 20.9665C20.097 20.9665 20.3905 20.4296 20.3905 19.5034V16.1312C20.3905 15.0575 20.6174 14.8414 21.37 14.8414C21.9229 14.8414 22.8751 15.1227 25.0952 17.2718C27.631 19.8207 28.0508 20.9647 29.4756 20.9647H33.2162C34.2844 20.9647 34.8185 20.4279 34.5114 19.3679C34.1752 18.313 32.9636 16.7779 31.3561 14.9614C30.4824 13.9254 29.177 12.8105 28.7794 12.2531C28.2248 11.5344 28.3852 11.2171 28.7794 10.579C28.7811 10.5807 33.339 4.12802 33.8134 1.93424Z" fill="white"/>
</svg>
