<svg width="82" height="57" viewBox="0 0 82 57" fill="none" xmlns="http://www.w3.org/2000/svg">
<rect x="17" y="10" width="48" height="35" fill="white"/>
<path d="M81.0398 12.2416C81.6799 16.7047 82 21.104 82 25.4396V31.5604L81.0398 44.7584C80.5277 48.4564 79.4395 51.1342 77.7752 52.7919C75.9828 54.5772 73.2943 55.7248 69.7096 56.2349C66.2529 56.4899 62.1241 56.6812 57.3232 56.8087C52.5223 56.9362 48.5855 57 45.5129 57H40.904C26.6932 56.8725 17.4114 56.6174 13.0585 56.2349L11.5222 56.0436L9.02576 55.6611L6.62529 54.7047L4.12881 52.7919L2.20843 49.6359L1.15222 46.0973L0.76815 44.7584C0.25605 40.2953 0 35.896 0 31.5604V25.4396L0.76815 12.2416C1.28025 8.54362 2.36846 5.86577 4.03279 4.20805C5.82514 2.2953 8.57767 1.14765 12.2904 0.765101C15.7471 0.510067 19.8439 0.318792 24.5808 0.191275C29.3177 0.0637584 33.2225 0 36.2951 0H40.904C52.4262 0 62.0281 0.255034 69.7096 0.765101C73.2943 1.14765 75.9828 2.2953 77.7752 4.20805C78.2873 4.71812 78.7354 5.32383 79.1194 6.02517C79.5035 6.72651 79.8236 7.42785 80.0796 8.12919C80.3357 8.83054 80.5277 9.5 80.6557 10.1376C80.7838 10.7752 80.9118 11.2852 81.0398 11.6678V12.2416ZM52.0422 29.0738L54.7307 27.7349L32.6464 16.2584V39.2114L52.0422 29.0738Z" fill="#FF0000"/>
</svg>
