<svg width="116" height="116" viewBox="0 0 116 116" fill="none" xmlns="http://www.w3.org/2000/svg">
<g clip-path="url(#clip0)">
<path d="M108.287 59.5024C107.82 58.5474 107.82 57.4522 108.287 56.4975L112.613 47.6469C115.022 42.719 113.114 36.8454 108.268 34.2746L99.5662 29.6572C98.6273 29.1593 97.9836 28.273 97.7999 27.2265L96.098 17.5231C95.1502 12.1205 90.1528 8.49009 84.7228 9.25836L74.9686 10.6381C73.9158 10.7867 72.8748 10.4483 72.111 9.70944L65.0308 2.86004C61.0884 -0.953886 54.9123 -0.954112 50.9701 2.86004L43.8897 9.71012C43.1257 10.4492 42.0846 10.787 41.032 10.6388L31.2779 9.25904C25.8461 8.49032 20.8504 12.1212 19.9027 17.5238L18.2008 27.2267C18.017 28.2734 17.3734 29.1595 16.4347 29.6577L7.73253 34.275C2.88729 36.8456 0.97874 42.7196 3.38754 47.6476L7.71372 56.4979C8.18044 57.4529 8.18044 58.5481 7.71372 59.5028L3.38731 68.3532C0.978513 73.2811 2.88706 79.1547 7.7323 81.7255L16.4345 86.3428C17.3734 86.8408 18.017 87.7271 18.2008 88.7736L19.9027 98.477C20.7655 103.395 24.9827 106.844 29.8295 106.844C30.3069 106.844 30.7912 106.81 31.2781 106.742L41.0323 105.362C42.0842 105.212 43.1259 105.552 43.8899 106.29L50.9701 113.14C52.9417 115.047 55.4706 116 58.0003 116C60.5294 116 63.0599 115.047 65.0305 113.14L72.111 106.29C72.875 105.552 73.9163 105.214 74.9686 105.362L84.7228 106.742C90.1553 107.51 95.1502 103.879 96.098 98.4768L97.8001 88.7738C97.9838 87.7271 98.6275 86.8411 99.5662 86.3428L108.268 81.7255C113.114 79.155 115.022 73.2809 112.613 68.353L108.287 59.5024ZM44.6194 27.8932C51.3827 27.8932 56.8852 33.3957 56.8852 40.159C56.8852 46.9223 51.3827 52.4248 44.6194 52.4248C37.8561 52.4248 32.3536 46.9223 32.3536 40.159C32.3536 33.3957 37.8561 27.8932 44.6194 27.8932ZM38.2884 82.4424C37.6352 83.0955 36.779 83.4222 35.9231 83.4222C35.0671 83.4222 34.2107 83.0958 33.5578 82.4424C32.2514 81.136 32.2514 79.0179 33.5578 77.7115L77.7121 33.5573C79.0182 32.2509 81.1365 32.2509 82.4429 33.5573C83.7492 34.8636 83.7492 36.9817 82.4429 38.2881L38.2884 82.4424ZM71.3808 88.1069C64.6175 88.1069 59.115 82.6044 59.115 75.8411C59.115 69.0778 64.6175 63.5753 71.3808 63.5753C78.1441 63.5753 83.6466 69.0778 83.6466 75.8411C83.6466 82.6044 78.1441 88.1069 71.3808 88.1069Z" fill="#FA943A"/>
<path d="M71.3806 70.2656C68.3064 70.2656 65.8052 72.7666 65.8052 75.8408C65.8052 78.915 68.3062 81.4161 71.3806 81.4161C74.4548 81.4161 76.9558 78.915 76.9558 75.8408C76.9558 72.7666 74.4548 70.2656 71.3806 70.2656Z" fill="#FA943A"/>
<path d="M44.6192 34.5835C41.545 34.5835 39.0439 37.0845 39.0439 40.1587C39.0439 43.2329 41.545 45.7342 44.6192 45.7342C47.6934 45.7342 50.1946 43.2332 50.1946 40.1587C50.1944 37.0847 47.6934 34.5835 44.6192 34.5835Z" fill="#FA943A"/>
</g>
<defs>
<clipPath id="clip0">
<rect width="116" height="116" fill="white"/>
</clipPath>
</defs>
</svg>
