<svg width="64" height="64" viewBox="0 0 64 64" fill="none" xmlns="http://www.w3.org/2000/svg">
<path d="M19.4 1.9999C20.3 1.4999 21.3 0.999902 22.1 0.399902C25.7 2.4999 29.4 4.5999 33 6.6999C33.1 6.6999 33.2001 6.7999 33.2001 6.8999C29.5001 8.9999 25.8 11.0999 22.1 13.2999C20.1 12.1999 18.2 11.0999 16.2 9.8999C14.5 8.8999 12.7 7.8999 10.9 6.7999H10.8C13.8 5.2999 16.6 3.5999 19.4 1.9999Z" fill="#4C7DD3"/>
<path d="M45.3999 1.4999C45.9999 1.0999 46.6999 0.699902 47.2999 0.399902C48.0999 0.999902 49.0999 1.3999 49.8999 1.8999C51.5999 2.8999 53.2999 3.7999 54.8999 4.7999C55.9999 5.4999 57.1999 6.0999 58.2999 6.7999C53.9999 9.2999 49.6999 11.6999 45.3999 14.2999C41.9999 16.2999 38.5999 18.2999 35.1999 20.1999C34.8999 20.2999 34.5999 20.5999 34.2999 20.3999C30.6999 18.3999 27.0999 16.2999 23.4999 14.1999C23.4999 14.2999 23.3999 14.3999 23.3999 14.4999C23.3999 14.3999 23.3999 14.1999 23.4999 14.0999C26.3999 12.3999 29.2999 10.7999 32.1999 9.0999C32.4999 8.8999 32.7999 8.6999 33.1999 8.5999H33.2999C37.3999 6.1999 41.3999 3.7999 45.3999 1.4999Z" fill="#F3AB6C"/>
<path d="M48.1 57.9999C48.1 59.0999 48.1 60.0999 48.1 61.1999C49.2 61.0999 50.3 61.3999 51.4 60.8999C52.5 60.3999 52.4 58.5999 51.3 58.1999C50.3 57.7999 49.2 58.0999 48.1 57.9999ZM45.2 53.0999C46.2 53.0999 47.2 53.0999 48.2 53.0999C48.2 53.9999 48.2 54.8999 48.2 55.7999C50 55.7999 52 55.4999 53.6 56.4999C55.4 57.5999 55.7 60.2999 54.5 61.9999C53.6 63.0999 52.1 63.3999 50.7 63.4999C48.9 63.4999 47.1 63.4999 45.3 63.4999C45.2 59.9999 45.2 56.4999 45.2 53.0999ZM32.9 53.0999C36.4 53.0999 39.8 53.0999 43.3 53.0999C43.3 53.8999 43.3 54.5999 43.3 55.3999C42.1 55.3999 40.8 55.3999 39.6 55.3999C39.6 58.0999 39.6 60.7999 39.6 63.4999C38.6 63.4999 37.6 63.4999 36.6 63.4999C36.6 60.7999 36.6 58.0999 36.6 55.3999C35.4 55.3999 34.1 55.3999 32.9 55.3999C32.9 54.5999 32.9 53.7999 32.9 53.0999ZM24.4 53.3999C25.7 52.7999 27.1 52.7999 28.5 52.8999C29.5 52.9999 30.5 53.1999 31.5 53.5999C31.3 54.2999 31 54.8999 30.8 55.5999C29.4 55.1999 28 54.8999 26.5 55.1999C25.6 55.3999 24.7 56.0999 24.5 57.0999C24.2 58.1999 24.4 59.4999 25.2 60.2999C25.9 60.9999 26.9 61.1999 27.8 61.0999C28.8 61.0999 29.8 60.8999 30.7 60.5999C30.9 61.2999 31.2 61.9999 31.4 62.6999C29.6 63.3999 27.7 63.5999 25.8 63.3999C24.5 63.1999 23.1 62.4999 22.3 61.3999C21.4 60.0999 21.1 58.3999 21.5 56.7999C21.9 55.3999 22.9 54.0999 24.4 53.3999ZM12.8 55.3999C12 55.6999 11.6 56.4999 11.4 57.1999C13.1 57.1999 14.9 57.1999 16.6 57.1999C16.5 56.4999 16.1 55.7999 15.5 55.3999C14.7 54.9999 13.7 54.9999 12.8 55.3999ZM10.8 53.6999C12.3 52.7999 14.2 52.6999 15.9 53.0999C17.2 53.3999 18.5 54.1999 19.1 55.3999C19.8 56.5999 19.8 57.9999 19.8 59.3999C17.1 59.3999 14.3 59.3999 11.6 59.3999C11.7 59.9999 12.1 60.5999 12.6 60.8999C13.4 61.2999 14.3 61.3999 15.1 61.3999C16.1 61.3999 17.2 61.1999 18.2 60.8999C18.4 61.4999 18.6 62.1999 18.8 62.7999C16.8 63.6999 14.5 63.7999 12.4 63.3999C11.2 63.0999 10 62.3999 9.3 61.2999C8.4 59.8999 8.2 58.1999 8.7 56.5999C8.9 55.3999 9.7 54.2999 10.8 53.6999ZM40.6 37.5999C44.1 37.5999 47.5 37.5999 51 37.5999C51 38.3999 51 39.0999 51 39.8999C49.8 39.8999 48.5 39.8999 47.3 39.8999C47.3 42.5999 47.3 45.2999 47.3 47.9999C46.3 47.9999 45.3 47.9999 44.3 47.9999C44.3 45.2999 44.3 42.5999 44.3 39.8999C43.1 39.8999 41.8 39.8999 40.6 39.8999C40.6 39.0999 40.6 38.2999 40.6 37.5999ZM0.5 37.5999C1.8 37.5999 3 37.5999 4.3 37.5999C5.3 39.8999 6.4 42.0999 7.4 44.3999C8.5 42.0999 9.5 39.8999 10.6 37.5999C11.9 37.5999 13.1 37.5999 14.4 37.5999C14.4 40.9999 14.4 44.4999 14.4 47.8999C13.4 47.8999 12.4 47.8999 11.4 47.8999C11.4 45.6999 11.4 43.4999 11.4 41.2999C10.4 43.4999 9.5 45.6999 8.5 47.8999C7.8 47.8999 7 47.8999 6.3 47.8999C5.3 45.9999 4.5 43.9999 3.6 42.0999C3.5 41.8999 3.4 41.5999 3.2 41.3999C3.2 43.5999 3.2 45.7999 3.2 47.8999C2.3 47.8999 1.4 47.8999 0.5 47.8999C0.5 44.4999 0.5 40.9999 0.5 37.5999ZM57 39.7999C56.3 39.9999 55.7 40.4999 55.4 41.0999C55 41.8999 55 42.7999 55.2 43.6999C55.3 44.4999 55.8 45.1999 56.5 45.5999C57.5 46.0999 58.9 45.9999 59.7 45.1999C60.3 44.5999 60.5 43.6999 60.6 42.7999C60.6 41.8999 60.4 40.9999 59.8 40.3999C59 39.6999 57.9 39.4999 57 39.7999ZM56.4 37.4999C58.2 37.1999 60.2 37.4999 61.6 38.5999C62.5 39.2999 63.2 40.3999 63.4 41.4999C63.7 42.8999 63.5 44.3999 62.8 45.5999C62.1 46.7999 60.8 47.5999 59.5 47.8999C58 48.2999 56.3 48.0999 54.9 47.4999C53.7 46.8999 52.7 45.8999 52.3 44.5999C51.9 43.1999 52 41.4999 52.7 40.1999C53.4 38.6999 54.9 37.7999 56.4 37.4999ZM32.2 37.8999C33.5 37.3999 34.9 37.2999 36.3 37.3999C37.3 37.4999 38.3 37.6999 39.2 38.0999C39 38.7999 38.7 39.3999 38.5 40.0999C37.1 39.6999 35.7 39.4999 34.3 39.6999C33.4 39.8999 32.6 40.5999 32.3 41.4999C32 42.4999 32.1 43.6999 32.7 44.5999C33.2 45.2999 34.1 45.6999 35 45.6999C36.2 45.7999 37.3 45.5999 38.5 45.1999C38.7 45.8999 39 46.5999 39.2 47.2999C37.4 47.9999 35.4 48.2999 33.5 47.9999C32.1 47.7999 30.7 46.9999 29.9 45.7999C29.1 44.4999 28.9 42.8999 29.2 41.3999C29.6 39.8999 30.7 38.4999 32.2 37.8999ZM20.5 39.8999C19.8 40.1999 19.4 40.9999 19.2 41.6999C20.9 41.6999 22.7 41.6999 24.4 41.6999C24.3 40.9999 23.9 40.1999 23.2 39.8999C22.4 39.4999 21.4 39.4999 20.5 39.8999ZM18.6 38.0999C20.1 37.2999 21.9 37.1999 23.6 37.5999C25 37.8999 26.2 38.7999 26.8 40.0999C27.4 41.2999 27.5 42.5999 27.4 43.8999C24.7 43.8999 21.9 43.8999 19.2 43.8999C19.3 44.3999 19.5 44.8999 19.9 45.1999C20.5 45.6999 21.2 45.7999 21.9 45.8999C23.2 45.9999 24.5 45.7999 25.8 45.3999C26 45.9999 26.2 46.6999 26.4 47.2999C24.5 48.0999 22.3 48.2999 20.2 47.8999C19 47.5999 17.8 46.9999 17 45.9999C16 44.5999 15.8 42.6999 16.3 40.9999C16.7 39.7999 17.5 38.6999 18.6 38.0999ZM33.3 6.8999C33.3 7.3999 33.4 7.9999 33.3 8.5999C33 8.6999 32.7 8.8999 32.3 9.0999C29.4 10.7999 26.5 12.4999 23.6 14.0999C23.6 14.1999 23.6 14.3999 23.5 14.4999C23.4 15.2999 23.5 16.0999 23.5 16.9999C23.5 19.7999 23.5 22.4999 23.5 25.2999V25.3999C23 25.5999 22.6 25.8999 22.1 26.1999C18.4 23.9999 14.7 21.8999 11 19.7999C11 15.4999 11 11.1999 11 6.9999C12.7 7.9999 14.5 8.9999 16.3 10.0999C18.3 11.1999 20.2 12.3999 22.2 13.4999C25.9 11.0999 29.6 8.9999 33.3 6.8999Z" fill="#3153A0"/>
<path d="M45.5 14.3999C49.8 11.8999 54.1 9.3999 58.4 6.8999C58.4 11.1999 58.4 15.3999 58.4 19.6999C55.3 21.4999 52.1 23.2999 49 25.0999C47.8 25.7999 46.6 26.4999 45.5 27.1999C41.9 29.2999 38.4 31.2999 34.8 33.3999C33.7 32.7999 32.6 32.1999 31.5 31.4999C28.9 29.9999 26.3 28.4999 23.6 26.9999C23.6 26.3999 23.6 25.7999 23.5 25.1999C23.4 22.3999 23.5 19.6999 23.5 16.8999C23.5 16.0999 23.4 15.2999 23.5 14.3999C23.5 14.2999 23.6 14.1999 23.6 14.0999C27.2 16.1999 30.8 18.2999 34.4 20.2999C34.7 20.4999 35 20.2999 35.3 20.0999C38.7 18.3999 42.1 16.3999 45.5 14.3999Z" fill="#DB7A2C"/>
</svg>
