<svg width="34" height="34" viewBox="0 0 34 34" xmlns="http://www.w3.org/2000/svg">
  <path d="M21.1096 16.9997L32.6135 5.49576C33.1595 4.95075 33.4666 4.21118 33.4673 3.43974C33.4679 2.6683 33.1621 1.92818 32.6171 1.38221C32.0721 0.836236 31.3325 0.529129 30.5611 0.528448C29.7897 0.527767 29.0495 0.833567 28.5036 1.37858L16.9997 12.8825L5.49576 1.37858C4.94979 0.832604 4.20929 0.525879 3.43717 0.525879C2.66505 0.525879 1.92455 0.832604 1.37858 1.37858C0.832604 1.92455 0.525879 2.66505 0.525879 3.43717C0.525879 4.20929 0.832604 4.94979 1.37858 5.49576L12.8825 16.9997L1.37858 28.5036C0.832604 29.0495 0.525879 29.79 0.525879 30.5622C0.525879 31.3343 0.832604 32.0748 1.37858 32.6208C1.92455 33.1667 2.66505 33.4735 3.43717 33.4735C4.20929 33.4735 4.94979 33.1667 5.49576 32.6208L16.9997 21.1169L28.5036 32.6208C29.0495 33.1667 29.79 33.4735 30.5622 33.4735C31.3343 33.4735 32.0748 33.1667 32.6208 32.6208C33.1667 32.0748 33.4735 31.3343 33.4735 30.5622C33.4735 29.79 33.1667 29.0495 32.6208 28.5036L21.1096 16.9997Z"/>
</svg>
