<svg width="26" height="26" viewBox="0 0 26 26" fill="none" xmlns="http://www.w3.org/2000/svg">
<path d="M13.2372 8.50431C10.8943 8.50431 8.98232 10.4163 8.98232 12.7592C8.98232 15.1021 10.8943 17.0141 13.2372 17.0141C15.5801 17.0141 17.4921 15.1021 17.4921 12.7592C17.4921 10.4163 15.5801 8.50431 13.2372 8.50431ZM25.9986 12.7592C25.9986 10.9972 26.0146 9.25123 25.9156 7.49246C25.8167 5.44961 25.3507 3.63658 23.8568 2.14275C22.3598 0.645724 20.55 0.182891 18.5071 0.0839402C16.7452 -0.0150104 14.9992 0.000949428 13.2404 0.000949428C11.4784 0.000949428 9.73243 -0.0150104 7.97367 0.0839402C5.93082 0.182891 4.11779 0.648916 2.62395 2.14275C1.12693 3.63978 0.664092 5.44961 0.565141 7.49246C0.466191 9.25442 0.482151 11.0004 0.482151 12.7592C0.482151 14.518 0.466191 16.2671 0.565141 18.0259C0.664092 20.0688 1.13012 21.8818 2.62395 23.3756C4.12098 24.8727 5.93082 25.3355 7.97367 25.4344C9.73563 25.5334 11.4816 25.5174 13.2404 25.5174C15.0023 25.5174 16.7483 25.5334 18.5071 25.4344C20.55 25.3355 22.363 24.8695 23.8568 23.3756C25.3539 21.8786 25.8167 20.0688 25.9156 18.0259C26.0178 16.2671 25.9986 14.5211 25.9986 12.7592ZM13.2372 19.3059C9.61433 19.3059 6.6905 16.3821 6.6905 12.7592C6.6905 9.13632 9.61433 6.21249 13.2372 6.21249C16.8601 6.21249 19.7839 9.13632 19.7839 12.7592C19.7839 16.3821 16.8601 19.3059 13.2372 19.3059ZM20.052 7.47331C19.2062 7.47331 18.5231 6.79023 18.5231 5.94437C18.5231 5.0985 19.2062 4.41542 20.052 4.41542C20.8979 4.41542 21.581 5.0985 21.581 5.94437C21.5812 6.14522 21.5418 6.34415 21.4651 6.52977C21.3883 6.71538 21.2757 6.88403 21.1337 7.02606C20.9917 7.16808 20.823 7.28069 20.6374 7.35744C20.4518 7.43419 20.2529 7.47356 20.052 7.47331Z" fill="white"/>
</svg>
