<?xml version="1.0" standalone="no"?>
<!DOCTYPE svg PUBLIC "-//W3C//DTD SVG 20010904//EN"
 "http://www.w3.org/TR/2001/REC-SVG-20010904/DTD/svg10.dtd">
<svg version="1.0" xmlns="http://www.w3.org/2000/svg"
 width="700.000000pt" height="700.000000pt" viewBox="0 0 700.000000 700.000000"
 preserveAspectRatio="xMidYMid meet">
<metadata>
Created by potrace 1.11, written by Peter Selinger 2001-2013
</metadata>
<g transform="translate(0.000000,700.000000) scale(0.100000,-0.100000)"
fill="#000000" stroke="none">
<path d="M2320 6896 c-70 -43 -656 -379 -795 -456 -22 -12 -58 -33 -80 -45
-22 -12 -84 -45 -138 -73 -53 -28 -102 -54 -107 -57 -11 -7 64 -53 430 -265
107 -62 262 -153 343 -201 81 -49 150 -89 152 -89 3 0 34 -18 70 -40 36 -22
67 -40 69 -40 2 0 37 -18 77 -41 81 -46 71 -47 184 21 28 16 56 33 64 36 7 4
65 38 128 76 63 37 116 68 117 68 2 0 44 24 93 54 102 61 142 83 128 69 -5 -6
-71 -46 -145 -90 -74 -45 -164 -99 -200 -122 -36 -22 -107 -65 -157 -96 -51
-31 -95 -60 -98 -66 -4 -5 -13 -9 -22 -9 -17 0 -137 67 -403 225 -58 34 -126
74 -152 88 -27 15 -69 39 -95 54 -26 14 -86 49 -133 78 -47 29 -106 63 -130
77 -25 14 -61 34 -80 46 -174 101 -229 132 -233 132 -2 0 -4 -315 -3 -699 l0
-699 30 -16 c17 -8 51 -28 76 -42 25 -15 68 -39 95 -54 28 -15 169 -96 315
-180 146 -84 281 -161 300 -172 19 -11 114 -67 211 -124 97 -57 181 -104 185
-104 5 0 34 15 65 34 98 59 96 59 98 -36 1 -45 4 -85 6 -89 4 -6 121 -73 340
-195 28 -15 126 -72 219 -126 93 -54 170 -98 172 -98 2 0 70 -40 151 -88 133
-80 183 -108 304 -174 l36 -20 194 112 c246 142 549 318 569 331 8 5 107 63
220 128 113 65 269 156 346 203 78 47 161 97 185 111 24 14 130 74 234 134
105 60 318 183 475 273 157 90 301 174 321 186 l37 23 0 695 c0 383 -2 696 -5
696 -5 0 -60 -31 -203 -115 -63 -37 -131 -77 -150 -88 -46 -26 -189 -109 -215
-124 -11 -7 -27 -16 -35 -20 -8 -4 -69 -39 -135 -78 -66 -39 -246 -144 -400
-234 -154 -89 -287 -167 -295 -171 -281 -168 -801 -462 -806 -457 -3 3 84 56
166 100 19 11 100 58 180 105 80 46 161 94 180 105 19 10 112 65 205 120 94
56 179 106 190 112 19 11 80 47 120 72 11 7 81 48 155 91 74 43 176 102 225
131 50 29 187 108 305 176 118 67 233 133 256 146 22 13 87 51 143 83 l103 59
-23 19 c-13 10 -33 23 -44 29 -11 5 -29 15 -40 22 -17 11 -73 42 -225 129 -19
11 -57 35 -85 53 -44 29 -321 187 -669 384 -60 33 -115 61 -121 61 -6 0 -74
-37 -151 -83 -76 -46 -242 -143 -369 -216 -126 -74 -246 -144 -265 -156 -19
-12 -156 -93 -305 -180 -148 -86 -290 -170 -315 -185 -25 -15 -61 -36 -80 -48
l-35 -21 1 77 c0 87 -13 123 -50 140 -15 6 -198 111 -409 233 -210 122 -400
232 -422 245 -22 12 -103 59 -179 103 -76 45 -148 83 -160 85 -13 3 -53 -15
-106 -48z m1270 -680 c0 -2 -7 -7 -16 -10 -8 -3 -12 -2 -9 4 6 10 25 14 25 6z
m-90 -51 c-7 -8 -17 -15 -23 -15 -6 0 -2 7 9 15 25 19 30 19 14 0z m-90 -50
c0 -2 -10 -9 -22 -15 -22 -11 -22 -10 -4 4 21 17 26 19 26 11z m-70 -40 c0 -2
-10 -9 -22 -15 -22 -11 -22 -10 -4 4 21 17 26 19 26 11z m-50 -30 c0 -2 -10
-9 -22 -15 -22 -11 -22 -10 -4 4 21 17 26 19 26 11z m-65 -35 c-4 -6 -25 -20
-48 -31 -49 -25 -43 -15 11 17 44 27 45 27 37 14z m-95 -55 c0 -2 -13 -11 -30
-20 -38 -19 -40 -11 -2 9 31 17 32 18 32 11z"/>
<path d="M3785 2908 c-248 -18 -405 -100 -514 -268 -66 -102 -83 -159 -87
-285 -3 -131 12 -211 59 -309 52 -108 138 -189 260 -246 96 -45 170 -58 328
-58 146 0 252 17 391 62 l66 21 -36 110 c-20 61 -37 112 -39 114 -2 2 -31 -4
-65 -13 -94 -26 -140 -31 -278 -30 -102 1 -133 5 -171 22 -95 42 -147 108
-172 219 -40 174 26 324 170 390 43 20 71 25 145 26 118 2 218 -9 302 -32 l65
-18 15 41 c8 23 25 71 39 109 29 76 32 72 -58 101 -66 21 -145 36 -225 42 -36
3 -72 6 -80 7 -8 2 -60 -1 -115 -5z"/>
<path d="M2190 2890 c-110 -28 -194 -73 -260 -138 -119 -119 -178 -272 -174
-447 2 -93 9 -131 38 -209 67 -178 216 -291 451 -342 62 -13 319 -12 390 1
114 22 121 24 187 48 43 16 62 28 60 38 -6 24 -56 184 -58 188 -2 2 -43 -6
-91 -18 -111 -26 -154 -32 -251 -33 -213 -1 -353 71 -376 195 l-4 25 421 0
c232 1 435 1 451 1 l29 1 -6 123 c-15 314 -162 508 -432 566 -114 25 -277 26
-375 1z m331 -248 c58 -25 96 -63 121 -119 40 -91 64 -83 -258 -83 -156 0
-284 3 -284 6 0 20 58 121 86 149 71 71 229 93 335 47z"/>
<path d="M6195 2903 c-267 -42 -456 -235 -492 -504 -51 -376 192 -641 597
-655 205 -7 364 50 491 176 97 96 145 207 155 360 19 284 -142 519 -409 598
-81 23 -266 37 -342 25z m268 -273 c124 -59 184 -197 157 -366 -20 -127 -78
-216 -168 -260 -49 -24 -200 -25 -253 -1 -42 19 -112 85 -132 124 -24 46 -44
153 -42 223 4 143 75 246 203 296 54 20 175 12 235 -16z"/>
<path d="M58 2877 c-3 -6 -4 -259 -4 -562 l1 -550 148 -2 147 -2 0 357 c1 339
2 355 17 327 15 -26 104 -218 181 -390 15 -33 53 -113 84 -177 l57 -117 121 2
121 2 154 348 c84 192 155 351 158 353 3 3 5 -153 4 -348 l-1 -353 165 0 164
0 0 560 0 560 -208 3 -207 2 -34 -72 c-18 -40 -52 -111 -74 -158 -22 -47 -56
-119 -75 -160 -70 -150 -138 -296 -152 -325 l-14 -30 -46 100 c-26 55 -55 118
-65 140 -30 67 -86 186 -118 255 -17 36 -48 106 -70 155 l-39 90 -206 2 c-156
2 -206 0 -209 -10z"/>
<path d="M4440 2762 l0 -127 195 0 c108 0 199 -2 203 -5 4 -3 8 -201 8 -440
l-1 -435 165 0 164 0 0 440 1 440 195 1 c107 1 198 2 202 3 4 0 7 57 7 126
l-1 125 -569 0 -569 0 0 -128z"/>
<path d="M1404 1205 c-177 -31 -324 -123 -398 -250 -45 -76 -79 -218 -80 -330
-1 -244 116 -428 337 -528 31 -14 57 -24 57 -22 0 3 10 1 23 -4 70 -27 375
-34 482 -12 102 21 225 64 225 78 0 14 -33 127 -52 176 -8 20 -15 26 -27 22
-87 -36 -350 -60 -453 -42 -68 12 -149 49 -182 83 -35 36 -73 110 -63 121 4 3
206 7 450 7 l442 1 -2 100 c-5 269 -100 444 -293 538 -127 63 -317 88 -466 62z
m260 -251 c38 -9 100 -72 126 -128 39 -87 57 -81 -260 -81 -174 -1 -280 3
-280 9 0 20 45 102 73 133 34 38 106 70 179 81 49 7 89 4 162 -14z"/>
<path d="M2840 1209 c-225 -39 -397 -176 -472 -376 -25 -69 -29 -86 -33 -180
-7 -153 52 -318 148 -418 55 -56 161 -119 257 -151 46 -16 85 -19 235 -19 117
1 201 5 240 15 33 7 65 14 70 16 32 6 122 36 134 43 12 8 8 27 -22 117 -20 59
-38 108 -40 110 -1 2 -30 -4 -62 -12 -100 -27 -156 -35 -260 -38 -231 -8 -369
117 -367 333 1 172 100 294 255 318 107 16 305 -3 428 -42 13 -4 23 13 48 79
18 47 33 97 34 112 2 25 -3 29 -56 45 -153 48 -409 71 -537 48z"/>
<path d="M3617 1192 c-12 -2 -17 -14 -18 -35 -1 -46 -1 -157 0 -189 l1 -28
199 0 c150 0 200 -3 203 -12 2 -7 3 -205 3 -440 -1 -236 1 -428 4 -429 3 -1
77 -2 164 -3 l157 -2 0 443 0 443 203 0 202 0 0 125 c1 119 0 125 -20 125
-124 3 -1086 4 -1098 2z"/>
<path d="M4989 1192 l-46 -3 4 -522 c2 -287 5 -542 6 -567 l2 -45 305 1 c352
0 423 6 522 44 168 64 247 176 253 358 7 207 -88 345 -285 413 -57 19 -90 23
-260 26 -107 2 -201 3 -207 3 -10 0 -13 36 -13 148 l0 147 -117 0 c-65 0 -139
-1 -164 -3z m622 -559 c83 -37 119 -142 77 -226 -41 -82 -110 -102 -355 -98
l-73 1 0 173 0 172 153 0 c131 -1 158 -4 198 -22z"/>
</g>
</svg>
