<svg width="30" height="30" viewBox="0 0 30 30" fill="none" xmlns="http://www.w3.org/2000/svg">
<path d="M12.5737 22.0149H19.3974C19.6074 23.8288 21.2458 25.1264 23.0562 24.9148C24.5793 24.7375 25.7789 23.538 25.9561 22.0149H29.4377C29.7423 22.0149 29.9901 21.7705 29.9901 21.4659V17.394H13.9608C13.6562 17.394 13.4101 17.1496 13.4101 16.845C13.4101 16.5387 13.6562 16.2943 13.9608 16.2943H30.0005V5.87712C30.0005 5.57595 29.7526 5.32812 29.4497 5.32812H12.5737C12.2708 5.32812 12.0229 5.57595 12.0229 5.87712V7.83734H14.8953C15.1999 7.83734 15.446 8.08344 15.446 8.38805C15.446 8.69095 15.1999 8.93705 14.8953 8.93705H12.0229V21.4659C12.0229 21.7705 12.2708 22.0149 12.5737 22.0149ZM22.6879 19.2647C23.903 19.2647 24.8891 20.2509 24.8891 21.4659C24.8891 22.6826 23.903 23.667 22.6879 23.667C21.4712 23.667 20.4868 22.6826 20.4868 21.4659C20.4868 20.2423 21.4729 19.2458 22.6983 19.2372L22.6879 19.2647Z" fill="black"/>
<path d="M2.03108 14.9402H7.41263V11.9697H2.4665L0.375488 14.9402H2.03108Z" fill="black"/>
<path d="M0.538896 22.0151H2.19105C2.40101 23.8291 4.0394 25.1267 5.85161 24.915C7.37297 24.7378 8.57422 23.5382 8.74976 22.0151H10.4002C10.7048 22.0151 10.9492 21.7708 10.9492 21.4661V9.51556C10.9492 9.21267 10.7048 8.96484 10.4002 8.96484H5.16321C4.9825 8.96484 4.81385 9.05434 4.71059 9.20234L3.54375 10.8528H7.94606C8.25067 10.8528 8.49677 11.0989 8.49677 11.4035V15.4736C8.49677 15.7783 8.25067 16.0244 7.94606 16.0244H0.00022505C0.00022505 16.0467 0.00022505 16.0691 0.00022505 16.0898V21.4507C-0.0083799 21.7536 0.230839 22.0065 0.535454 22.0151C0.537175 22.0151 0.537175 22.0151 0.538896 22.0151ZM5.45922 19.265C6.67596 19.265 7.66037 20.2511 7.66037 21.4661C7.66037 22.6829 6.67596 23.6673 5.45922 23.6673C4.2442 23.6673 3.25807 22.6829 3.25807 21.4661C3.25807 20.2477 4.23559 19.2564 5.45578 19.2375L5.45922 19.265Z" fill="black"/>
</svg>
