<svg width="30" height="30" viewBox="0 0 30 30" fill="none" xmlns="http://www.w3.org/2000/svg">
<path d="M27.4441 2.54784C24.0469 -0.84928 18.5391 -0.84928 15.142 2.54784C12.4241 5.26577 11.8811 9.33469 13.5123 12.5929L0.00804395 26.0974L0 29.9914L7.55156 30V26.3271H11.2244V22.6543H14.8973V18.9814L17.399 16.4797C20.6572 18.1109 24.7261 17.5679 27.4441 14.8499C30.8412 11.4528 30.8412 5.94496 27.4441 2.54784ZM24.6787 9.03304C23.6515 10.0602 21.9861 10.0602 20.9588 9.03304C19.9316 8.00586 19.9317 6.34043 20.9588 5.31318C21.986 4.28593 23.6515 4.28599 24.6787 5.31318C25.706 6.34043 25.706 8.00586 24.6787 9.03304Z" fill="black"/>
</svg>
