<svg width="71" height="70" viewBox="0 0 71 70" fill="none" xmlns="http://www.w3.org/2000/svg">
<g clip-path="url(#clip0)">
<path d="M35.4529 21.6641C28.128 21.6641 22.1689 27.6471 22.1689 35.0011C22.1689 42.3556 28.128 48.3386 35.4529 48.3386C42.7774 48.3386 48.7364 42.3556 48.7364 35.0011C48.7364 27.6471 42.7774 21.6641 35.4529 21.6641ZM43.3396 32.4894L33.8232 42.0442C33.4237 42.4453 32.8998 42.6461 32.3764 42.6461C31.853 42.6461 31.3296 42.4458 30.9301 42.0442L27.2934 38.3929C26.4945 37.5913 26.4945 36.2908 27.2934 35.4887C28.0918 34.6865 29.387 34.6865 30.1859 35.4887L32.3764 37.6879L40.4471 29.5852C41.2455 28.7831 42.5407 28.7831 43.3396 29.5852C44.1385 30.3868 44.1385 31.6873 43.3396 32.4894Z" fill="#FA943A"/>
<path d="M65.0687 18.9928L65.0665 18.9383C65.0362 18.2659 65.016 17.5546 65.0038 16.7631C64.9468 12.9035 61.891 9.71088 58.0464 9.49512C50.0305 9.04598 43.8294 6.42162 38.5311 1.23647L38.4859 1.19321C36.7577 -0.397738 34.1508 -0.397738 32.4221 1.19321L32.3769 1.23647C27.0785 6.42162 20.8775 9.04598 12.8616 9.49565C9.01744 9.71088 5.96108 12.9035 5.90417 16.7636C5.89247 17.5498 5.87172 18.2611 5.8414 18.9383L5.83821 19.0649C5.68236 27.2717 5.48874 37.4855 8.89191 46.7562C10.7632 51.8543 13.5972 56.2859 17.3147 59.9287C21.5487 64.0773 27.0944 67.3708 33.7976 69.7174C34.0157 69.7938 34.2423 69.8558 34.4731 69.9022C34.7987 69.9674 35.1263 69.9999 35.454 69.9999C35.7816 69.9999 36.1098 69.9674 36.4348 69.9022C36.6657 69.8558 36.8939 69.7933 37.113 69.7164C43.8082 67.3654 49.348 64.0703 53.5783 59.9223C57.2942 56.2784 60.1283 51.8458 62.0011 46.7466C65.4171 37.4482 65.224 27.2151 65.0687 18.9928ZM35.4529 52.4461C25.8721 52.4461 18.078 44.6205 18.078 35.0011C18.078 25.3817 25.8721 17.5562 35.4529 17.5562C45.0332 17.5562 52.8278 25.3817 52.8278 35.0011C52.8278 44.6205 45.0332 52.4461 35.4529 52.4461Z" fill="#FA943A"/>
</g>
<defs>
<clipPath id="clip0">
<rect x="0.59375" width="69.7189" height="70" fill="white"/>
</clipPath>
</defs>
</svg>
