<svg width="70" height="70" viewBox="0 0 70 70" fill="none" xmlns="http://www.w3.org/2000/svg">
<path d="M25.515 34.9438H9.37695V39.509H25.515V34.9438Z" fill="#1653DD"/>
<path d="M30.6813 43.3252H9.37695V47.8904H30.6813V43.3252Z" fill="#1653DD"/>
<path d="M67.5 8H2.5C1.11719 8 0 9.11719 0 10.5V23H70V10.5C70 9.11719 68.8828 8 67.5 8ZM0 60.5C0 61.8828 1.11719 63 2.5 63H67.5C68.8828 63 70 61.8828 70 60.5V29.875H0V60.5ZM45.2344 46.125C45.2344 45.7812 45.5156 45.5 45.8594 45.5H58.75C59.0938 45.5 59.375 45.7812 59.375 46.125V51.75C59.375 52.0938 59.0938 52.375 58.75 52.375H45.8594C45.5156 52.375 45.2344 52.0938 45.2344 51.75V46.125Z" fill="#FA943A"/>
</svg>
