<svg width="131" height="70" viewBox="0 0 131 70" fill="none" xmlns="http://www.w3.org/2000/svg">
<g clip-path="url(#clip0)">
<path d="M64.3831 59.1221C64.3831 55.5831 61.5255 52.7136 58.0008 52.7136C54.4752 52.7136 51.6177 55.5831 51.6177 59.1221C51.6177 62.6619 54.4752 65.5314 58.0008 65.5314C61.5255 65.5314 64.3831 62.6619 64.3831 59.1221Z" fill="#1653DD"/>
<path d="M119.76 59.1221C119.76 55.5831 116.902 52.7136 113.376 52.7136C109.852 52.7136 106.994 55.5831 106.994 59.1221C106.994 62.6619 109.852 65.5314 113.376 65.5314C116.902 65.5314 119.76 62.6619 119.76 59.1221Z" fill="#1653DD"/>
<path d="M123.522 29.5619L115.659 26.3434L109.025 11.5256C108.021 9.2829 105.787 7.8335 103.334 7.8335H44.6675C42.9848 7.8335 41.6211 9.19802 41.6211 10.8799V16.7441H44.6675C46.3501 16.7441 47.7138 18.1086 47.7138 19.7905C47.7138 21.4731 46.3501 22.8369 44.6675 22.8369H41.6211V28.9304H52.1818C53.8645 28.9304 55.2282 30.2941 55.2282 31.9768C55.2282 33.6586 53.8645 35.0231 52.1818 35.0231H41.6211V41.1159H44.6675C46.3501 41.1159 47.7138 42.4796 47.7138 44.1622C47.7138 45.8449 46.3501 47.2086 44.6675 47.2086H41.6211V53.4124C41.6211 55.0951 42.9848 56.4588 44.6675 56.4588H45.813C47.0347 50.8413 52.0335 46.6208 58.0009 46.6208C63.9675 46.6208 68.9662 50.8413 70.1887 56.4588H101.189C102.411 50.8413 107.41 46.6208 113.377 46.6208C119.344 46.6208 124.343 50.8413 125.564 56.4588H127.733C129.415 56.4588 130.78 55.0951 130.78 53.4124V40.3924C130.78 35.6173 127.931 31.3659 123.522 29.5619V29.5619ZM94.2971 29.6507C92.6145 29.6507 91.2507 28.287 91.2507 26.6044V13.2011H103.334C103.389 13.2011 110.597 29.2208 110.597 29.2208C110.664 29.3715 110.746 29.5143 110.836 29.6507H94.2971Z" fill="#1653DD"/>
<path d="M36.3408 41.116C34.6582 41.116 33.2944 42.4797 33.2944 44.1623C33.2944 45.845 34.6582 47.2087 36.3408 47.2087H41.6212V41.116H36.3408Z" fill="#1653DD"/>
<path d="M36.3408 28.9304C34.6582 28.9304 33.2944 30.2941 33.2944 31.9768C33.2944 33.6586 34.6582 35.0232 36.3408 35.0232H41.6212V28.9304H36.3408Z" fill="#1653DD"/>
<path d="M29.8432 16.7441C28.1606 16.7441 26.7969 18.1087 26.7969 19.7905C26.7969 21.4732 28.1606 22.8369 29.8432 22.8369H41.621V16.7441H29.8432Z" fill="#1653DD"/>
</g>
<path d="M12.6682 46.8C12.4415 46.8 12.2489 46.732 12.0902 46.596C11.9542 46.4373 11.8862 46.2447 11.8862 46.018V41.054H0.836199C0.609533 41.054 0.416866 40.986 0.258199 40.85C0.122199 40.6913 0.0541992 40.4987 0.0541992 40.272V39.014C0.0541992 38.6967 0.178866 38.3567 0.428199 37.994L10.6622 23.578C10.7755 23.3967 10.9455 23.2607 11.1722 23.17C11.3989 23.0567 11.6482 23 11.9202 23H14.2322C14.4815 23 14.6742 23.068 14.8102 23.204C14.9462 23.34 15.0142 23.5327 15.0142 23.782V38.198H18.1082C18.3349 38.198 18.5162 38.2773 18.6522 38.436C18.8109 38.572 18.8902 38.7533 18.8902 38.98V40.272C18.8902 40.4987 18.8109 40.6913 18.6522 40.85C18.5162 40.986 18.3349 41.054 18.1082 41.054H15.0142V46.018C15.0142 46.2447 14.9349 46.4373 14.7762 46.596C14.6402 46.732 14.4589 46.8 14.2322 46.8H12.6682ZM3.5902 38.266H11.9202V26.434L3.5902 38.266Z" fill="#1653DD"/>
<defs>
<clipPath id="clip0">
<rect x="27" width="103.983" height="70" fill="white"/>
</clipPath>
</defs>
</svg>
