<svg width="98" height="70" viewBox="0 0 98 70" fill="none" xmlns="http://www.w3.org/2000/svg">
<g clip-path="url(#clip0)">
<path d="M87.0625 4.375H82.6875V2.1875C82.6875 0.978359 81.7091 0 80.5 0C79.2909 0 78.3125 0.978359 78.3125 2.1875V4.375H69.5625V2.1875C69.5625 0.978359 68.5841 0 67.375 0C66.1659 0 65.1875 0.978359 65.1875 2.1875V4.375H56.4375V2.1875C56.4375 0.978359 55.4591 0 54.25 0C53.0409 0 52.0625 0.978359 52.0625 2.1875V4.375H43.3125V2.1875C43.3125 0.978359 42.3341 0 41.125 0C39.9159 0 38.9375 0.978359 38.9375 2.1875V4.375H34.5625C30.9438 4.375 28 7.31883 28 10.9375V63.4375C28 64.6466 28.9784 65.625 30.1875 65.625H66.3328C64.232 62.4939 63 58.7331 63 54.6875C63 43.8312 71.8312 35 82.6875 35C86.7331 35 90.4939 36.232 93.625 38.3328V10.9375C93.625 7.31883 90.6812 4.375 87.0625 4.375ZM43.3125 56.875H38.9375C37.7284 56.875 36.75 55.8966 36.75 54.6875C36.75 53.4784 37.7284 52.5 38.9375 52.5H43.3125C44.5216 52.5 45.5 53.4784 45.5 54.6875C45.5 55.8966 44.5216 56.875 43.3125 56.875ZM43.3125 48.125H38.9375C37.7284 48.125 36.75 47.1466 36.75 45.9375C36.75 44.7284 37.7284 43.75 38.9375 43.75H43.3125C44.5216 43.75 45.5 44.7284 45.5 45.9375C45.5 47.1466 44.5216 48.125 43.3125 48.125ZM43.3125 39.375H38.9375C37.7284 39.375 36.75 38.3966 36.75 37.1875C36.75 35.9784 37.7284 35 38.9375 35H43.3125C44.5216 35 45.5 35.9784 45.5 37.1875C45.5 38.3966 44.5216 39.375 43.3125 39.375ZM43.3125 30.625H38.9375C37.7284 30.625 36.75 29.6466 36.75 28.4375C36.75 27.2284 37.7284 26.25 38.9375 26.25H43.3125C44.5216 26.25 45.5 27.2284 45.5 28.4375C45.5 29.6466 44.5216 30.625 43.3125 30.625ZM56.4375 56.875H52.0625C50.8534 56.875 49.875 55.8966 49.875 54.6875C49.875 53.4784 50.8534 52.5 52.0625 52.5H56.4375C57.6466 52.5 58.625 53.4784 58.625 54.6875C58.625 55.8966 57.6466 56.875 56.4375 56.875ZM56.4375 48.125H52.0625C50.8534 48.125 49.875 47.1466 49.875 45.9375C49.875 44.7284 50.8534 43.75 52.0625 43.75H56.4375C57.6466 43.75 58.625 44.7284 58.625 45.9375C58.625 47.1466 57.6466 48.125 56.4375 48.125ZM56.4375 39.375H52.0625C50.8534 39.375 49.875 38.3966 49.875 37.1875C49.875 35.9784 50.8534 35 52.0625 35H56.4375C57.6466 35 58.625 35.9784 58.625 37.1875C58.625 38.3966 57.6466 39.375 56.4375 39.375ZM56.4375 30.625H52.0625C50.8534 30.625 49.875 29.6466 49.875 28.4375C49.875 27.2284 50.8534 26.25 52.0625 26.25H56.4375C57.6466 26.25 58.625 27.2284 58.625 28.4375C58.625 29.6466 57.6466 30.625 56.4375 30.625ZM69.5625 39.375H65.1875C63.9784 39.375 63 38.3966 63 37.1875C63 35.9784 63.9784 35 65.1875 35H69.5625C70.7716 35 71.75 35.9784 71.75 37.1875C71.75 38.3966 70.7716 39.375 69.5625 39.375ZM69.5625 30.625H65.1875C63.9784 30.625 63 29.6466 63 28.4375C63 27.2284 63.9784 26.25 65.1875 26.25H69.5625C70.7716 26.25 71.75 27.2284 71.75 28.4375C71.75 29.6466 70.7716 30.625 69.5625 30.625ZM82.6875 30.625H78.3125C77.1034 30.625 76.125 29.6466 76.125 28.4375C76.125 27.2284 77.1034 26.25 78.3125 26.25H82.6875C83.8966 26.25 84.875 27.2284 84.875 28.4375C84.875 29.6466 83.8966 30.625 82.6875 30.625ZM89.25 17.5H32.375V10.9375C32.375 9.73055 33.3555 8.75 34.5625 8.75H38.9375V10.9375C38.9375 12.1466 39.9159 13.125 41.125 13.125C42.3341 13.125 43.3125 12.1466 43.3125 10.9375V8.75H52.0625V10.9375C52.0625 12.1466 53.0409 13.125 54.25 13.125C55.4591 13.125 56.4375 12.1466 56.4375 10.9375V8.75H65.1875V10.9375C65.1875 12.1466 66.1659 13.125 67.375 13.125C68.5841 13.125 69.5625 12.1466 69.5625 10.9375V8.75H78.3125V10.9375C78.3125 12.1466 79.2909 13.125 80.5 13.125C81.7091 13.125 82.6875 12.1466 82.6875 10.9375V8.75H87.0625C88.2695 8.75 89.25 9.73055 89.25 10.9375V17.5Z" fill="#1653DD"/>
<path d="M82.6875 39.375C74.2451 39.375 67.375 46.2451 67.375 54.6875C67.375 63.1299 74.2451 70 82.6875 70C91.1299 70 98 63.1299 98 54.6875C98 46.2451 91.1299 39.375 82.6875 39.375ZM91.4375 56.875H82.6875C81.4784 56.875 80.5 55.8966 80.5 54.6875V45.9375C80.5 44.7284 81.4784 43.75 82.6875 43.75C83.8966 43.75 84.875 44.7284 84.875 45.9375V52.5H91.4375C92.6466 52.5 93.625 53.4784 93.625 54.6875C93.625 55.8966 92.6466 56.875 91.4375 56.875Z" fill="#1653DD"/>
</g>
<path d="M9.3841 46.8C9.15743 46.8 8.9761 46.732 8.8401 46.596C8.7041 46.4373 8.6361 46.2447 8.6361 46.018V26.842L2.9241 31.228C2.76543 31.364 2.59543 31.432 2.4141 31.432C2.2101 31.432 2.01743 31.3187 1.8361 31.092L1.0201 30.038C0.906764 29.8793 0.850098 29.7207 0.850098 29.562C0.850098 29.3127 0.963431 29.1087 1.1901 28.95L8.5681 23.238C8.81743 23.0793 9.1121 23 9.4521 23H11.0501C11.2768 23 11.4581 23.0793 11.5941 23.238C11.7528 23.374 11.8321 23.5553 11.8321 23.782V46.018C11.8321 46.2447 11.7528 46.4373 11.5941 46.596C11.4581 46.732 11.2768 46.8 11.0501 46.8H9.3841Z" fill="#1653DD"/>
<defs>
<clipPath id="clip0">
<rect x="28" width="70" height="70" fill="white"/>
</clipPath>
</defs>
</svg>
