<svg width="70" height="70" viewBox="0 0 70 70" fill="none" xmlns="http://www.w3.org/2000/svg">
<g clip-path="url(#clip0)">
<path d="M29.3385 51.3679H45.2605C45.7504 55.6004 49.5734 58.6282 53.7978 58.1343C57.3517 57.7207 60.1506 54.9218 60.5642 51.3679H68.6879C69.3986 51.3679 69.9769 50.7977 69.9769 50.0869V40.5859H32.5751C31.8643 40.5859 31.2901 40.0157 31.2901 39.3049C31.2901 38.5901 31.8643 38.0199 32.5751 38.0199H70.001V13.7131C70.001 13.0104 69.4227 12.4321 68.716 12.4321H29.3385C28.6317 12.4321 28.0535 13.0104 28.0535 13.7131V18.287H34.7556C35.4664 18.287 36.0406 18.8612 36.0406 19.572C36.0406 20.2787 35.4664 20.853 34.7556 20.853H28.0535V50.0869C28.0535 50.7977 28.6317 51.3679 29.3385 51.3679ZM52.9385 44.9509C55.7735 44.9509 58.0745 47.2519 58.0745 50.0869C58.0745 52.926 55.7735 55.2229 52.9385 55.2229C50.0994 55.2229 47.8024 52.926 47.8024 50.0869C47.8024 47.2318 50.1034 44.9067 52.9626 44.8866L52.9385 44.9509Z" fill="#FA943A"/>
<path d="M4.73855 34.8597H17.2955V27.9287H5.75451L0.875488 34.8597H4.73855Z" fill="#FA943A"/>
<path d="M1.25694 51.3677H5.11196C5.60187 55.6002 9.42478 58.628 13.6533 58.1341C17.2031 57.7205 20.006 54.9215 20.4156 51.3677H24.2666C24.9774 51.3677 25.5476 50.7975 25.5476 50.0867V22.202C25.5476 21.4952 24.9774 20.917 24.2666 20.917H12.047C11.6254 20.917 11.2318 21.1258 10.9909 21.4712L8.26827 25.3222H18.5403C19.2511 25.3222 19.8253 25.8964 19.8253 26.6072V36.1042C19.8253 36.815 19.2511 37.3892 18.5403 37.3892H3.68362e-05C3.68362e-05 37.4414 3.68362e-05 37.4936 3.68362e-05 37.5418V50.0506C-0.0200414 50.7573 0.538135 51.3476 1.24891 51.3677C1.25292 51.3677 1.25292 51.3677 1.25694 51.3677ZM12.7377 44.9507C15.5768 44.9507 17.8737 47.2516 17.8737 50.0867C17.8737 52.9258 15.5768 55.2227 12.7377 55.2227C9.90264 55.2227 7.60167 52.9258 7.60167 50.0867C7.60167 47.2436 9.88256 44.9306 12.7297 44.8864L12.7377 44.9507Z" fill="#FA943A"/>
</g>
<defs>
<clipPath id="clip0">
<rect width="70" height="70" fill="white"/>
</clipPath>
</defs>
</svg>
