<svg width="70" height="70" viewBox="0 0 70 70" fill="none" xmlns="http://www.w3.org/2000/svg">
<g clip-path="url(#clip0)">
<path d="M67.8125 51.0417H48.125V38.6458V10.9375C48.125 9.73 47.145 8.75 45.9375 8.75C44.73 8.75 43.75 9.73 43.75 10.9375V36.4583H40.7517L33.8888 17.0188C32.76 13.8163 29.7208 11.6667 26.3258 11.6667H16.7708C15.5633 11.6667 14.5833 12.6467 14.5833 13.8542V29.1667H8.02083C3.59625 29.1667 0 32.7629 0 37.1875V50.3125C0 53.1271 2.28958 55.4167 5.10417 55.4167H5.98208C6.65875 58.7417 9.60458 61.25 13.125 61.25C16.6454 61.25 19.5912 58.7417 20.2679 55.4167H26.3958C27.0725 58.7417 30.0183 61.25 33.5387 61.25C37.0592 61.25 40.005 58.7417 40.6817 55.4167H45.9346H67.8096C69.0171 55.4167 69.9971 54.4367 69.9971 53.2292C69.9971 52.0217 69.02 51.0417 67.8125 51.0417ZM18.9583 16.0417H26.3258C27.8688 16.0417 29.2513 17.0188 29.7646 18.4742L36.1112 36.4583H22.6042C20.5946 36.4583 18.9583 34.8221 18.9583 32.8125V31.3542V16.0417ZM13.125 56.875C11.515 56.875 10.2083 55.5654 10.2083 53.9583C10.2083 52.3512 11.515 51.0417 13.125 51.0417C14.735 51.0417 16.0417 52.3512 16.0417 53.9583C16.0417 55.5654 14.735 56.875 13.125 56.875ZM33.5417 56.875C31.9317 56.875 30.625 55.5654 30.625 53.9583C30.625 52.3512 31.9317 51.0417 33.5417 51.0417C35.1517 51.0417 36.4583 52.3512 36.4583 53.9583C36.4583 55.5654 35.1517 56.875 33.5417 56.875Z" fill="#FA943A"/>
<path d="M63.4375 32.0835V34.271C63.4375 35.4785 62.4575 36.4585 61.25 36.4585C60.0425 36.4585 59.0625 35.4785 59.0625 34.271V32.0835H53.9583C53.1533 32.0835 52.5 32.7368 52.5 33.5418V45.2085C52.5 46.0135 53.1533 46.6668 53.9583 46.6668H68.5417C69.3467 46.6668 70 46.0135 70 45.2085V33.5418C70 32.7368 69.3467 32.0835 68.5417 32.0835H63.4375Z" fill="#FA943A"/>
<path d="M63.4375 14.5835V16.771C63.4375 17.9785 62.4575 18.9585 61.25 18.9585C60.0425 18.9585 59.0625 17.9785 59.0625 16.771V14.5835H53.9583C53.1533 14.5835 52.5 15.2368 52.5 16.0418V27.7085C52.5 28.5135 53.1533 29.1668 53.9583 29.1668H68.5417C69.3467 29.1668 70 28.5135 70 27.7085V16.0418C70 15.2368 69.3467 14.5835 68.5417 14.5835H63.4375Z" fill="#FA943A"/>
</g>
<defs>
<clipPath id="clip0">
<rect width="70" height="70" fill="white"/>
</clipPath>
</defs>
</svg>
