<svg width="98" height="70" viewBox="0 0 98 70" fill="none" xmlns="http://www.w3.org/2000/svg">
<path d="M96.5687 61.5365L92.0051 56.9729C91.1135 56.0813 89.669 56.0813 88.7773 56.9729C87.8858 57.8637 87.8858 59.3096 88.7773 60.2006L89.4461 60.8695H45.6843L46.3531 60.2006C47.2447 59.3098 47.2447 57.8638 46.3531 56.9729C45.4616 56.0813 44.017 56.0813 43.1254 56.9729L38.5617 61.5365C38.1139 61.9834 37.8914 62.5933 37.8914 63.152C37.8914 63.7226 38.1257 64.3323 38.5617 64.7674L43.1254 69.3311C44.017 70.2228 45.4613 70.2228 46.3531 69.3311C47.2447 68.4402 47.2447 66.9943 46.3531 66.1033L45.6843 65.4345H89.4461L88.7773 66.1033C87.8858 66.9942 87.8858 68.4401 88.7773 69.3311C89.669 70.2228 91.1133 70.2228 92.0051 69.3311L96.5687 64.7674C97.0158 64.3215 97.2391 63.7118 97.2391 63.152C97.2391 62.5663 97.005 61.9717 96.5687 61.5365Z" fill="#1653DD"/>
<path d="M38.5604 47.8427L37.8915 48.5113V7.79303L38.5604 8.46185C39.452 9.35353 40.8963 9.35353 41.7881 8.46185C42.6798 7.57018 42.6798 6.12588 41.7881 5.23407L37.2228 0.6689C36.3313 -0.222641 34.8867 -0.222641 33.995 0.6689L29.4299 5.23407C28.5382 6.12575 28.5382 7.57004 29.4299 8.46185C30.3214 9.3534 31.766 9.3534 32.6577 8.46185L33.3264 7.79303V48.5113L32.6575 47.8425C31.766 46.951 30.3214 46.951 29.4297 47.8425C28.5381 48.7342 28.5381 50.1785 29.4297 51.0703L33.9949 55.6355C34.8866 56.5272 36.3309 56.5272 37.2227 55.6355L41.7879 51.0703C42.6795 50.1788 42.6795 48.7343 41.788 47.8427C40.8965 46.9511 39.4519 46.9511 38.5604 47.8427Z" fill="#1653DD"/>
<path d="M85.8263 18.2608H97.2393V2.28265C97.2393 1.0217 96.2167 0 94.9566 0H63.761V18.2608H75.174C76.4341 18.2608 77.4566 19.2825 77.4566 20.5435C77.4566 21.8044 76.4341 22.8261 75.174 22.8261H63.761V29.6739C63.761 30.9349 62.7385 31.9566 61.4783 31.9566C60.2182 31.9566 59.1957 30.9349 59.1957 29.6739V0H49.3044C48.0442 0 47.0217 1.0217 47.0217 2.28265V49.4564C47.0217 50.7174 48.0442 51.7391 49.3044 51.7391H59.1957V40.3261C59.1957 39.0651 60.2182 38.0434 61.4783 38.0434C62.7385 38.0434 63.761 39.0651 63.761 40.3261V51.7391H94.9566C96.2167 51.7391 97.2393 50.7174 97.2393 49.4564V22.8261H85.8263C84.5661 22.8261 83.5436 21.8044 83.5436 20.5435C83.5436 19.2825 84.566 18.2608 85.8263 18.2608Z" fill="#1653DD"/>
<path d="M1.44802 47.174C1.22135 47.174 1.02868 47.106 0.870016 46.97C0.734016 46.8113 0.666016 46.6187 0.666016 46.392V45.372C0.666016 44.8507 0.949349 44.352 1.51602 43.876L8.92802 36.498C10.6054 35.07 11.7613 33.9027 12.396 32.996C13.0307 32.0893 13.348 31.126 13.348 30.106C13.348 28.7687 12.974 27.726 12.226 26.978C11.478 26.2073 10.39 25.822 8.96202 25.822C7.60202 25.822 6.52535 26.2187 5.73202 27.012C4.93868 27.8053 4.45135 28.8707 4.27002 30.208C4.22468 30.4573 4.11135 30.65 3.93002 30.786C3.74868 30.922 3.56735 30.99 3.38602 30.99H1.75402C1.55002 30.99 1.38002 30.922 1.24402 30.786C1.10802 30.65 1.04002 30.4913 1.04002 30.31C1.08535 29.1087 1.40268 27.9527 1.99202 26.842C2.60402 25.7087 3.49935 24.7907 4.67802 24.088C5.85668 23.3627 7.28468 23 8.96202 23C11.5007 23 13.4047 23.6687 14.674 25.006C15.966 26.3207 16.612 27.998 16.612 30.038C16.612 31.466 16.2607 32.758 15.558 33.914C14.878 35.0473 13.8013 36.2487 12.328 37.518L5.63002 44.318H16.34C16.5894 44.318 16.782 44.386 16.918 44.522C17.054 44.658 17.122 44.8507 17.122 45.1V46.392C17.122 46.6187 17.0427 46.8113 16.884 46.97C16.748 47.106 16.5667 47.174 16.34 47.174H1.44802Z" fill="#1653DD"/>
</svg>
