<svg width="99" height="70" viewBox="0 0 99 70" fill="none" xmlns="http://www.w3.org/2000/svg">
<path d="M9.06391 48.14C7.29591 48.14 5.76591 47.8567 4.47391 47.29C3.18191 46.7007 2.19591 45.9413 1.51591 45.012C0.858581 44.0827 0.507247 43.1193 0.461914 42.122C0.461914 41.918 0.529914 41.7593 0.665914 41.646C0.801914 41.51 0.971914 41.442 1.17591 41.442H2.70591C2.95525 41.442 3.15925 41.4987 3.31791 41.612C3.47658 41.7027 3.60125 41.8953 3.69191 42.19C3.98658 43.346 4.62125 44.162 5.59591 44.638C6.59325 45.114 7.76058 45.352 9.09791 45.352C10.7299 45.352 12.0219 44.9667 12.9739 44.196C13.9486 43.4027 14.4359 42.2807 14.4359 40.83C14.4359 38.0647 12.7472 36.682 9.36991 36.682H6.17391C5.94725 36.682 5.75458 36.614 5.59591 36.478C5.45991 36.3193 5.39191 36.1267 5.39191 35.9V35.016C5.39191 34.676 5.51658 34.3813 5.76591 34.132L12.3959 26.788H2.33191C2.10525 26.788 1.91258 26.72 1.75391 26.584C1.61791 26.448 1.54991 26.2667 1.54991 26.04V24.816C1.54991 24.5667 1.61791 24.374 1.75391 24.238C1.91258 24.0793 2.10525 24 2.33191 24H15.7959C16.0452 24 16.2379 24.0793 16.3739 24.238C16.5326 24.374 16.6119 24.5667 16.6119 24.816V25.938C16.6119 26.1873 16.4986 26.448 16.2719 26.72L9.64191 34.166H10.1859C12.4979 34.234 14.3226 34.8347 15.6599 35.968C17.0199 37.1013 17.6999 38.756 17.6999 40.932C17.6999 42.428 17.3259 43.72 16.5779 44.808C15.8526 45.8733 14.8326 46.7007 13.5179 47.29C12.2032 47.8567 10.7186 48.14 9.06391 48.14Z" fill="#1653DD"/>
<path d="M54.515 34.9436H38.377V39.5088H54.515V34.9436Z" fill="#1653DD"/>
<path d="M59.6813 43.3254H38.377V47.8906H59.6813V43.3254Z" fill="#1653DD"/>
<path d="M96.5 8H31.5C30.1172 8 29 9.11719 29 10.5V23H99V10.5C99 9.11719 97.8828 8 96.5 8ZM29 60.5C29 61.8828 30.1172 63 31.5 63H96.5C97.8828 63 99 61.8828 99 60.5V29.875H29V60.5ZM74.2344 46.125C74.2344 45.7812 74.5156 45.5 74.8594 45.5H87.75C88.0938 45.5 88.375 45.7812 88.375 46.125V51.75C88.375 52.0938 88.0938 52.375 87.75 52.375H74.8594C74.5156 52.375 74.2344 52.0938 74.2344 51.75V46.125Z" fill="#1653DD"/>
</svg>
